<mxfile host="app.diagrams.net" modified="2023-06-16T17:55:13.033Z" agent="Mozilla/5.0 (Windows NT 10.0; Win64; x64) AppleWebKit/537.36 (KHTML, like Gecko) Chrome/114.0.0.0 Safari/537.36" version="21.3.8" etag="MKTsKd2niLbAlS25O4dZ" type="github">
  <diagram name="PÃ¡gina-1" id="cxgCrByv5qhI8VQ9ClqA">
    <mxGraphModel>
      <root>
        <mxCell id="0" />
        <mxCell id="1" parent="0" />
      </root>
    </mxGraphModel>
  </diagram>
</mxfile>
